<svg width="469" height="340" viewBox="0 0 469 340" fill="none" xmlns="http://www.w3.org/2000/svg">
<path d="M138.321 97.5839H120.884V80.1469C120.884 76.5319 118.597 73.3119 115.183 72.1209C109.864 70.2659 104.279 69.325 98.583 69.325C92.887 69.325 87.302 70.2659 81.983 72.1209C78.569 73.3119 76.282 76.5319 76.282 80.1469V97.5839H58.847C55.232 97.5839 52.013 99.871 50.822 103.284C48.966 108.602 48.025 114.188 48.025 119.885C48.025 125.582 48.966 131.168 50.822 136.486C52.013 139.899 55.233 142.185 58.847 142.185H76.284V159.622C76.284 163.237 78.571 166.456 81.984 167.647C87.302 169.503 92.888 170.444 98.585 170.444C104.282 170.444 109.868 169.503 115.186 167.647C118.599 166.456 120.886 163.237 120.886 159.622V142.185H138.323C141.938 142.185 145.158 139.898 146.349 136.485C148.204 131.167 149.145 125.582 149.145 119.885C149.145 114.189 148.204 108.604 146.349 103.285C145.156 99.8709 141.937 97.5839 138.321 97.5839ZM131.729 125.185H112.385C107.691 125.185 103.885 128.991 103.885 133.685V153.029C100.404 153.582 96.765 153.581 93.284 153.029V133.685C93.284 128.991 89.478 125.185 84.784 125.185H65.44C65.164 123.444 65.025 121.674 65.025 119.885C65.025 118.096 65.164 116.325 65.44 114.584H84.784C89.478 114.584 93.284 110.778 93.284 106.084V86.741C96.766 86.188 100.404 86.188 103.885 86.741V106.084C103.885 110.778 107.691 114.584 112.385 114.584H131.728C132.004 116.325 132.143 118.095 132.143 119.885C132.143 121.674 132.004 123.445 131.729 125.185Z" fill="url(#paint0_linear)"/>
<path d="M254.329 102.231C254.338 102.231 254.348 102.231 254.357 102.231C262.353 102.222 268.816 95.7299 268.797 87.7339C268.777 79.7469 262.296 73.2849 254.3 73.2949C246.313 73.3139 239.841 79.8059 239.861 87.7919C239.879 95.7779 246.351 102.231 254.329 102.231Z" fill="url(#paint1_linear)"/>
<path d="M413.655 112.606C398.605 96.3679 374.042 94.4999 356.518 108.266C351.729 112.028 346.142 115.248 339.984 117.891C333.219 78.8069 315.463 42.9449 288.198 13.5449C273.149 -2.6951 248.587 -4.5651 231.057 9.2009C216.557 20.5979 194.857 27.1349 171.522 27.1349C148.181 27.1349 126.478 20.5979 111.977 9.1999C94.463 -4.5641 69.9 -2.6961 54.838 13.5439C19.475 51.6989 0 101.371 0 153.41C0 172.909 2.73201 192.22 8.12201 210.808C12.062 224.392 22.524 234.969 36.106 239.101C40.15 240.331 44.281 240.934 48.377 240.934C58.055 240.934 67.531 237.569 75.159 231.174C91.782 217.226 111.145 207.115 131.861 201.443C127.645 217.964 125.459 235.088 125.459 252.48C125.459 271.989 128.19 291.299 133.576 309.873C137.516 323.459 147.978 334.037 161.564 338.168C165.606 339.397 169.734 339.999 173.828 339.999C183.507 339.999 192.985 336.632 200.61 330.235C227.541 307.64 261.765 295.197 296.976 295.197C332.187 295.197 366.411 307.64 393.341 330.235C404.192 339.339 418.789 342.304 432.387 338.169C445.973 334.037 456.435 323.46 460.375 309.874C465.761 291.301 468.492 271.991 468.492 252.481C468.493 200.433 449.018 150.759 413.655 112.606ZM62.306 215.85C56.567 220.661 49.139 222.162 41.928 219.967C34.731 217.778 29.41 212.408 27.33 205.238C22.466 188.461 20 171.023 20 153.41C20 106.429 37.582 61.5849 69.505 27.1409C77.42 18.6049 90.366 17.6519 99.619 24.9239C117.576 39.0389 143.784 47.1339 171.523 47.1339C199.255 47.1339 225.46 39.0389 243.413 24.9269C252.678 17.6529 265.621 18.6059 273.531 27.1409C298.729 54.3129 314.922 87.5909 320.691 123.838C313.921 125.217 306.8 126.005 299.494 126.153C300.446 124.216 300.992 122.043 300.984 119.737C300.964 111.751 294.463 105.288 286.467 105.317C278.481 105.336 272.028 111.837 272.048 119.833C272.053 121.177 272.255 122.472 272.602 123.706C258.912 120.83 246.701 115.545 237.434 108.266C219.912 94.5009 195.349 96.3669 180.297 112.606C162.138 132.197 148.181 154.832 138.887 179.26C110.767 184.734 84.397 197.313 62.306 215.85ZM441.167 304.302C439.087 311.475 433.767 316.844 426.568 319.033C419.359 321.226 411.932 319.725 406.197 314.912C375.67 289.301 336.881 275.196 296.976 275.196C257.071 275.196 218.283 289.301 187.756 314.912C182.021 319.724 174.598 321.225 167.383 319.033C160.186 316.844 154.864 311.475 152.785 304.302C147.924 287.539 145.459 270.103 145.459 252.479C145.459 205.49 163.041 160.644 194.965 126.202C199.314 121.51 205.185 119.112 211.129 119.112C215.995 119.112 220.911 120.72 225.078 123.994C243.04 138.104 269.246 146.197 296.975 146.197C324.704 146.197 350.911 138.104 368.872 123.994C378.13 116.721 391.075 117.668 398.985 126.202C430.909 160.645 448.491 205.491 448.491 252.479C448.493 270.104 446.028 287.539 441.167 304.302Z" fill="url(#paint2_linear)"/>
<path d="M263.776 196.649H246.339V179.213C246.339 175.598 244.052 172.378 240.639 171.187C235.321 169.332 229.736 168.391 224.039 168.391C218.343 168.391 212.758 169.332 207.439 171.187C204.025 172.378 201.738 175.598 201.738 179.213V196.65H184.302C180.687 196.65 177.468 198.937 176.277 202.35C174.421 207.668 173.48 213.254 173.48 218.951C173.48 224.648 174.421 230.234 176.277 235.552C177.468 238.965 180.687 241.252 184.302 241.252H201.738V258.688C201.738 262.303 204.025 265.522 207.438 266.713C212.757 268.569 218.343 269.51 224.039 269.51C229.736 269.51 235.322 268.569 240.64 266.713C244.053 265.522 246.339 262.302 246.339 258.688V241.252H263.776C267.39 241.252 270.61 238.966 271.801 235.553C273.656 230.236 274.598 224.65 274.598 218.951C274.598 213.252 273.657 207.666 271.801 202.349C270.61 198.935 267.39 196.649 263.776 196.649ZM257.183 224.251H237.839C233.145 224.251 229.339 228.057 229.339 232.751V252.094C225.858 252.647 222.219 252.646 218.738 252.094V232.751C218.738 228.057 214.932 224.251 210.238 224.251H190.895C190.619 222.51 190.48 220.74 190.48 218.95C190.48 217.16 190.619 215.39 190.895 213.649H210.238C214.932 213.649 218.738 209.843 218.738 205.149V185.806C222.22 185.253 225.858 185.254 229.339 185.806V205.15C229.339 209.844 233.145 213.65 237.839 213.65H257.183C257.459 215.391 257.598 217.161 257.598 218.951C257.598 220.741 257.459 222.51 257.183 224.251Z" fill="url(#paint3_linear)"/>
<path d="M411.973 233.322C411.983 233.322 412.002 233.322 412.012 233.322C420.008 233.293 426.461 226.801 426.442 218.805C426.413 210.819 419.922 204.356 411.926 204.385C403.939 204.404 397.477 210.905 397.506 218.892C397.524 226.869 403.996 233.322 411.973 233.322Z" fill="url(#paint4_linear)"/>
<path d="M347.715 204.511C339.728 204.521 333.256 211.002 333.267 218.998C333.277 226.984 339.758 233.457 347.754 233.447C355.741 233.437 362.213 226.956 362.203 218.969C362.192 210.974 355.711 204.502 347.715 204.511Z" fill="url(#paint5_linear)"/>
<path d="M379.931 236.602C379.844 236.602 379.767 236.602 379.68 236.602C371.771 236.698 365.385 243.132 365.385 251.07C365.385 259.056 371.866 265.538 379.853 265.538C379.872 265.538 379.892 265.538 379.901 265.538C379.93 265.538 379.959 265.538 379.988 265.538C380.008 265.538 380.027 265.538 380.046 265.538C388.032 265.509 394.485 258.998 394.456 251.012C394.418 243.016 387.917 236.563 379.931 236.602Z" fill="url(#paint6_linear)"/>
<path d="M379.786 201.299C379.795 201.299 379.806 201.299 379.815 201.299C387.811 201.28 394.274 194.789 394.254 186.802C394.235 178.806 387.743 172.343 379.757 172.363C371.762 172.382 365.299 178.874 365.318 186.86C365.327 194.837 371.81 201.299 379.786 201.299Z" fill="url(#paint7_linear)"/>
<defs>
<linearGradient id="paint0_linear" x1="98.585" y1="69.325" x2="98.585" y2="170.444" gradientUnits="userSpaceOnUse">
<stop stop-color="#FFFF00" stop-opacity="0.5"/>
<stop offset="0.557292" stop-color="#A8659D"/>
</linearGradient>
<linearGradient id="paint1_linear" x1="254.329" y1="73.2949" x2="254.329" y2="102.231" gradientUnits="userSpaceOnUse">
<stop stop-color="#FFFF00" stop-opacity="0.5"/>
<stop offset="0.557292" stop-color="#A8659D"/>
</linearGradient>
<linearGradient id="paint2_linear" x1="234.246" y1="0" x2="234.246" y2="339.999" gradientUnits="userSpaceOnUse">
<stop stop-color="#FFFF00" stop-opacity="0.5"/>
<stop offset="0.557292" stop-color="#A8659D"/>
</linearGradient>
<linearGradient id="paint3_linear" x1="224.039" y1="168.391" x2="224.039" y2="269.51" gradientUnits="userSpaceOnUse">
<stop stop-color="#FFFF00" stop-opacity="0.5"/>
<stop offset="0.557292" stop-color="#A8659D"/>
</linearGradient>
<linearGradient id="paint4_linear" x1="411.974" y1="204.385" x2="411.974" y2="233.322" gradientUnits="userSpaceOnUse">
<stop stop-color="#FFFF00" stop-opacity="0.5"/>
<stop offset="0.557292" stop-color="#A8659D"/>
</linearGradient>
<linearGradient id="paint5_linear" x1="347.735" y1="204.511" x2="347.735" y2="233.447" gradientUnits="userSpaceOnUse">
<stop stop-color="#FFFF00" stop-opacity="0.5"/>
<stop offset="0.557292" stop-color="#A8659D"/>
</linearGradient>
<linearGradient id="paint6_linear" x1="379.921" y1="236.602" x2="379.921" y2="265.538" gradientUnits="userSpaceOnUse">
<stop stop-color="#FFFF00" stop-opacity="0.5"/>
<stop offset="0.557292" stop-color="#A8659D"/>
</linearGradient>
<linearGradient id="paint7_linear" x1="379.786" y1="172.363" x2="379.786" y2="201.299" gradientUnits="userSpaceOnUse">
<stop stop-color="#FFFF00" stop-opacity="0.5"/>
<stop offset="0.557292" stop-color="#A8659D"/>
</linearGradient>
</defs>
</svg>
