<svg width="289" height="250" viewBox="0 0 289 250" fill="none" xmlns="http://www.w3.org/2000/svg">
<path d="M266.02 0H22.5C10.094 0 0 10.094 0 22.5V192.807C0 205.213 10.094 215.307 22.5 215.307H135.76V232.029H105.991V249.029H182.528V232.029H152.76V215.307H266.02C278.426 215.307 288.52 205.213 288.52 192.807V22.5C288.52 10.093 278.426 0 266.02 0ZM22.5 17H266.02C269.053 17 271.52 19.467 271.52 22.5V158.028H17V22.5C17 19.466 19.467 17 22.5 17ZM266.02 198.306H22.5C19.467 198.306 17 195.839 17 192.806V175.028H271.52V192.806C271.52 195.839 269.053 198.306 266.02 198.306Z" fill="url(#paint0_linear)"/>
<defs>
<linearGradient id="paint0_linear" x1="144.26" y1="0" x2="144.26" y2="249.029" gradientUnits="userSpaceOnUse">
<stop stop-color="#FFFE88"/>
<stop offset="0.369792" stop-color="#9D6D90"/>
</linearGradient>
</defs>
</svg>
